<svg xmlns="http://www.w3.org/2000/svg" width="95.429" height="55.552" viewBox="0 0 95.429 55.552">
  <g id="cosechadora" transform="translate(594.167 615.236)">
    <path id="Trazado_3877" data-name="Trazado 3877" d="M-569.452-584.4h47.3a6.244,6.244,0,0,0,1.75-.79,2.659,2.659,0,0,0,.878-1.181l4.51-24.326" fill="none" stroke="#fff" stroke-linecap="round" stroke-width="2"/>
    <g id="Elipse_18" data-name="Elipse 18" transform="translate(-585 -574)" fill="none" stroke="#fff" stroke-width="2">
      <circle cx="6.5" cy="6.5" r="6.5" stroke="none"/>
      <circle cx="6.5" cy="6.5" r="5.5" fill="none"/>
    </g>
    <g id="Elipse_19" data-name="Elipse 19" transform="translate(-547 -579)" fill="none" stroke="#fff" stroke-width="2">
      <circle cx="9.5" cy="9.5" r="9.5" stroke="none"/>
      <circle cx="9.5" cy="9.5" r="8.5" fill="none"/>
    </g>
    <path id="Trazado_3878" data-name="Trazado 3878" d="M-572.851-566.913h27.164" fill="none" stroke="#fff" stroke-width="2"/>
    <path id="Trazado_3879" data-name="Trazado 3879" d="M-532.42-583.843v8.591" transform="translate(1)" fill="none" stroke="#fff" stroke-width="2"/>
    <path id="Trazado_3880" data-name="Trazado 3880" d="M-530.9-580.937l11.634,9.461v6.964l-9.784-5.387" transform="translate(-0.516 -0.632)" fill="none" stroke="#fff" stroke-width="2"/>
    <path id="Trazado_3881" data-name="Trazado 3881" d="M-519.281-573.357v12.673H-501.5s-12.825-10.708-14.481-11.663A7.88,7.88,0,0,0-519.281-573.357Z" fill="none" stroke="#fff" stroke-linecap="round" stroke-width="2"/>
    <path id="Trazado_3882" data-name="Trazado 3882" d="M-574.368-584.4h-5.307a3.337,3.337,0,0,0-1.089.493,1.817,1.817,0,0,0-.553.819v10.234" fill="none" stroke="#fff" stroke-linecap="round" stroke-width="2"/>
    <path id="Trazado_3883" data-name="Trazado 3883" d="M-570.052-572.852h18.989" fill="none" stroke="#fff" stroke-linecap="round" stroke-width="2"/>
    <path id="Trazado_3886" data-name="Trazado 3886" d="M-570.052-572.852H-560" transform="translate(-2.799 -23)" fill="none" stroke="#fff" stroke-linecap="round" stroke-width="2"/>
    <path id="Trazado_3887" data-name="Trazado 3887" d="M-570.052-572.852H-560" transform="translate(-2.799 -18)" fill="none" stroke="#fff" stroke-linecap="round" stroke-width="2"/>
    <path id="Trazado_3884" data-name="Trazado 3884" d="M-539.1-573.042s-3.312,2.688-.449,5.233,5.308-1.5,5.308-1.5" fill="none" stroke="#fff" stroke-linecap="round" stroke-width="2"/>
    <g id="Elipse_20" data-name="Elipse 20" transform="translate(-579 -568)" fill="none" stroke="#fff" stroke-width="1">
      <circle cx="1" cy="1" r="1" stroke="none"/>
      <circle cx="1" cy="1" r="0.5" fill="none"/>
    </g>
    <path id="Trazado_3885" data-name="Trazado 3885" d="M-578.5-584.4V-600.24a3.324,3.324,0,0,1,.585-1.7,2.42,2.42,0,0,1,1.487-.637h33.919" fill="none" stroke="#fff" stroke-linecap="round" stroke-width="2"/>
    <path id="Trazado_3888" data-name="Trazado 3888" d="M-534.241-584.4v-26.623a4.355,4.355,0,0,0-.817-1.846,6.272,6.272,0,0,0-1.8-1.369h-47.847a7.229,7.229,0,0,0-1.53.359,4.391,4.391,0,0,0-1.162.687l-5.383,5.532,4.336,4.56s3.648-3.87,4.934-4.56,20.148-.384,20.148-.384" fill="none" stroke="#fff" stroke-linecap="round" stroke-width="2"/>
    <path id="Trazado_3889" data-name="Trazado 3889" d="M-563.51-614.236v11.76" transform="translate(1)" fill="none" stroke="#fff" stroke-width="2"/>
    <path id="Trazado_3890" data-name="Trazado 3890" d="M-538.72-602.476h4.479" fill="none" stroke="#fff" stroke-linecap="round" stroke-width="2"/>
    <path id="Trazado_3891" data-name="Trazado 3891" d="M-533.868-608.7a21.358,21.358,0,0,1,1.738-1.771,2.916,2.916,0,0,1,1.178-.7h17.868" fill="none" stroke="#fff" stroke-linecap="round" stroke-width="2"/>
    <path id="Trazado_3892" data-name="Trazado 3892" d="M-516.024-605.219h-12.709v14.952h9.661" fill="none" stroke="#fff" stroke-width="2"/>
  </g>
</svg>
