<svg id="jcb" xmlns="http://www.w3.org/2000/svg" width="275" height="106.742" viewBox="0 0 275 106.742">
  <g id="Grupo_351" data-name="Grupo 351">
    <rect id="Rect치ngulo_342" data-name="Rect치ngulo 342" width="275" height="106.742" fill="#fcaf26"/>
    <path id="Trazado_192" data-name="Trazado 192" d="M253.929,82.355a3.348,3.348,0,0,1-3.346,3.316H14.236a3.348,3.348,0,0,1-3.346-3.316V14.206a3.348,3.348,0,0,1,3.346-3.316H250.568a3.348,3.348,0,0,1,3.346,3.316V82.355Z" transform="translate(5.091 5.091)" fill="#191918"/>
    <path id="Trazado_193" data-name="Trazado 193" d="M161.43,43.38v.382h0V43.38" transform="translate(75.46 20.278)" fill="#203f87"/>
    <path id="Trazado_194" data-name="Trazado 194" d="M71.4,70.786c-4.08,3.874-10.111,4.755-19,4.755H39.758c-17.7,0-23.318-4.109-23.318-18.3V49.508H33.4c0,.719-.073,1.453-.073,2.1,0,7.088,1.79,9.348,8.878,9.348h8.159c6.53,0,7.66-2.421,7.66-8.306V16.3H76.121V58.386c0,5.077-1.878,9.67-4.725,12.415" transform="translate(7.685 7.619)" fill="#fff"/>
    <path id="Trazado_195" data-name="Trazado 195" d="M120.314,37.083c0-4.681-3.008-6.6-9.538-6.6H96.262c-11.74,0-14.6,1.526-14.6,11.519v8.144c0,9.186,3.991,11.035,14.6,11.035h10.522c10.023,0,14.029-1.042,14.029-8.056v-.646h18.343c.073,1.541.161,2.906.161,4.27,0,7.249-1.717,12.092-5.958,15.159-4.476,3.3-11.578,3.947-21.938,3.947H91.2c-9.377,0-15.981-.4-21.117-4.358-4.975-3.874-6.853-9.186-6.853-17.169V38.359c0-17.58,7.748-22.569,27.97-22.569h20.221c10.36,0,17.375.484,21.689,3.786,3.83,2.906,5.459,7.733,5.459,14.748,0,1.042,0,2.172-.088,3.3H120.3v-.572Z" transform="translate(29.557 7.381)" fill="#fff"/>
    <path id="Trazado_196" data-name="Trazado 196" d="M120.4,74.9V16.3h53.4c13.3,0,19.737,5.312,19.737,16.362,0,6.3-2.773,10.155-8.731,12.415,7.5,1.2,10.756,5.562,10.756,13.941,0,11.285-5.87,15.878-19,15.878H120.39ZM174.95,34.262a4.5,4.5,0,0,0-4.652-4.843H138.5v9.67h31.8c3.008,0,4.652-1.688,4.652-4.843M176.9,56.171c0-3.14-1.952-5.151-4.975-5.151H138.5V61.585h33.428c3.184,0,4.975-1.937,4.975-5.4" transform="translate(56.276 7.619)" fill="#fff"/>
    <rect id="Rect치ngulo_343" data-name="Rect치ngulo 343" width="24.374" height="24.096" transform="translate(24.081 23.919)" fill="#fcaf26"/>
    <path id="Trazado_197" data-name="Trazado 197" d="M29.414,25.912s.4-.015.514-.029a.435.435,0,0,1,.455.235c.029.059.235.675.264.748s.088.411-.176.47c-.059,0-.528.1-.528.1l-.528-1.526Zm-.91-2.818s.528.044.646.044a.275.275,0,0,1,.264.176c.044.073.235.631.249.69s.132.4-.161.411h-.558L28.5,23.08ZM26.67,21.48l2.392.338a1.777,1.777,0,0,1,1.409,1.2c.044.117.293.9.323.983a.835.835,0,0,1-.382,1.013,1.414,1.414,0,0,1,.969.7s.455,1.321.5,1.453a1.179,1.179,0,0,1-.734,1.57c-.147.059-1.922.514-1.922.514L26.685,21.48Z" transform="translate(12.467 10.041)" fill="#191918" fill-rule="evenodd"/>
    <path id="Trazado_198" data-name="Trazado 198" d="M29.414,25.912s.4-.015.514-.029a.435.435,0,0,1,.455.235c.029.059.235.675.264.748s.088.411-.176.47c-.044,0-.528.1-.528.1l-.528-1.526Zm-.91-2.818s.514.044.646.044a.275.275,0,0,1,.264.176c.044.073.235.631.249.69s.132.4-.161.411h-.558L28.5,23.08ZM26.67,21.48l2.392.338a1.777,1.777,0,0,1,1.409,1.2c.044.117.293.9.323.983a.835.835,0,0,1-.382,1.013,1.414,1.414,0,0,1,.969.7s.455,1.321.5,1.453a1.179,1.179,0,0,1-.734,1.57c-.147.059-1.922.514-1.922.514L26.685,21.48Z" transform="translate(12.467 10.041)" fill="none" stroke="#191918" stroke-miterlimit="3.86" stroke-width="0.01"/>
    <path id="Trazado_199" data-name="Trazado 199" d="M20.67,20.6l3.566.528.572,1.922-.836-.073s2.054,6.5,2.128,6.706c.264.734.411,1.5-.7,1.864-.147.044-1.189.338-1.321.382a1.333,1.333,0,0,1-1.79-.851l-1.306-4.021,1.614-.117s.66,2.069.719,2.216c.147.426.235.6.69.484.338-.073.323-.205.235-.5-.044-.117-1.966-6.31-1.966-6.31l-.91-.073-.675-2.187Z" transform="translate(9.662 9.615)" fill="#191918"/>
    <path id="Trazado_200" data-name="Trazado 200" d="M20.67,20.6l3.566.528.572,1.922-.836-.073s2.054,6.5,2.128,6.706c.264.734.411,1.5-.7,1.864-.147.044-1.189.338-1.321.382a1.333,1.333,0,0,1-1.79-.851l-1.306-4.021,1.614-.117s.66,2.069.719,2.216c.147.426.235.6.69.484.338-.073.323-.205.235-.5-.044-.117-1.966-6.31-1.966-6.31l-.91-.073-.675-2.187Z" transform="translate(9.662 9.615)" fill="none" stroke="#191918" stroke-miterlimit="3.86" stroke-width="0.01"/>
    <path id="Trazado_201" data-name="Trazado 201" d="M24.6,21.125c.161.029,1.306.205,1.5.235a1.838,1.838,0,0,1,1.541,1.174c.073.235.631,1.952.631,1.952h-1.35s-.249-.836-.308-.983c-.132-.352-.132-.44-.543-.5s-.4.117-.293.411c.044.147,1.291,4.2,1.335,4.358.147.455.191.646.616.558.382-.088.308-.293.205-.631-.029-.117-.426-1.321-.426-1.321l1.35-.1s.69,2.142.719,2.245a1.054,1.054,0,0,1-.5,1.35,1.237,1.237,0,0,1-.205.088l-1.306.367a1.133,1.133,0,0,1-1.482-.675c-.029-.1-2.231-7.22-2.348-7.572-.205-.587,0-1.1.851-.983" transform="translate(11.06 9.853)" fill="#191918"/>
    <path id="Trazado_202" data-name="Trazado 202" d="M24.6,21.125c.161.029,1.306.205,1.5.235a1.838,1.838,0,0,1,1.541,1.174c.073.235.631,1.952.631,1.952h-1.35s-.249-.836-.308-.983c-.132-.352-.132-.44-.543-.5s-.4.117-.293.411c.044.147,1.291,4.2,1.335,4.358.147.455.191.646.616.558.382-.088.308-.293.205-.631-.029-.117-.426-1.321-.426-1.321l1.35-.1s.69,2.142.719,2.245a1.054,1.054,0,0,1-.5,1.35,1.237,1.237,0,0,1-.205.088l-1.306.367a1.133,1.133,0,0,1-1.482-.675c-.029-.1-2.231-7.22-2.348-7.572-.205-.587,0-1.1.851-.983Z" transform="translate(11.06 9.853)" fill="none" stroke="#191918" stroke-miterlimit="3.86" stroke-width="0.01"/>
    <path id="Trazado_203" data-name="Trazado 203" d="M20.312,20.03c.675.1,12.327,1.981,12.84,2.069A1.873,1.873,0,0,1,34.9,23.376c.073.205,1.658,4.887,1.717,5.092a1.142,1.142,0,0,1-.778,1.673c-.191.059-11.153,3.434-11.417,3.522s-1.306.514-1.732-.969c0,0-3.346-10.478-3.493-10.947a3.776,3.776,0,0,1-.235-.939c-.059-.866.484-.9.924-.822.161.015.323.044.426.059M20,19.458c.293.044,13.016,2.113,13.339,2.172a2.415,2.415,0,0,1,2.084,1.6c.1.264,1.673,4.975,1.746,5.209a1.529,1.529,0,0,1-1,2.157c-.382.132-11.3,3.551-11.431,3.6a1.682,1.682,0,0,1-2.48-1.042s-3.537-10.991-3.639-11.314a4.692,4.692,0,0,1-.264-1.277c0-1.423,1.365-1.145,1.644-1.115" transform="translate(8.582 9.069)" fill="#191918" fill-rule="evenodd"/>
    <path id="Trazado_204" data-name="Trazado 204" d="M20.312,20.035c.675.1,12.327,1.981,12.84,2.069A1.873,1.873,0,0,1,34.9,23.381c.073.205,1.658,4.887,1.717,5.092a1.142,1.142,0,0,1-.778,1.673c-.191.059-11.153,3.434-11.417,3.522s-1.291.514-1.717-.969c0,0-3.346-10.478-3.493-10.947a3.776,3.776,0,0,1-.235-.939c-.059-.866.484-.9.924-.822.161.015.323.044.426.059ZM20,19.448c.293.044,13.016,2.113,13.339,2.172a2.4,2.4,0,0,1,2.084,1.6c.1.264,1.673,4.975,1.746,5.209a1.529,1.529,0,0,1-1,2.157c-.382.132-11.3,3.551-11.431,3.6a1.682,1.682,0,0,1-2.48-1.042s-3.537-10.991-3.639-11.314a4.692,4.692,0,0,1-.264-1.277c0-1.423,1.365-1.145,1.644-1.115Z" transform="translate(8.582 9.065)" fill="none" stroke="#191918" stroke-miterlimit="3.86" stroke-width="0.01"/>
  </g>
</svg>
